<?xml version="1.0" encoding="utf-8"?>
<!-- Generator: Adobe Illustrator 22.1.0, SVG Export Plug-In . SVG Version: 6.00 Build 0)  -->
<svg version="1.1" id="Layer_1" xmlns="http://www.w3.org/2000/svg" xmlns:xlink="http://www.w3.org/1999/xlink" x="0px" y="0px"
	 viewBox="0 0 24 24" style="enable-background:new 0 0 24 24;" xml:space="preserve">
<title>seo-search-eye</title>
<g>
	<path d="M23.242,24.01c-0.2,0-0.389-0.078-0.53-0.22l-5.443-5.443c-1.482,1.236-3.342,1.913-5.277,1.913
		c-4.549,0-8.25-3.701-8.25-8.25c0-4.549,3.701-8.25,8.25-8.25c4.549,0,8.25,3.701,8.25,8.25c0,1.935-0.677,3.795-1.913,5.277
		l5.443,5.443c0.292,0.292,0.292,0.768,0,1.061C23.631,23.932,23.442,24.01,23.242,24.01z M11.992,5.26
		c-3.722,0-6.75,3.028-6.75,6.75c0,3.722,3.028,6.75,6.75,6.75c3.722,0,6.75-3.028,6.75-6.75C18.742,8.288,15.714,5.26,11.992,5.26z
		"/>
	<path d="M12.003,24.014c-2.131,0-4.225-0.573-6.068-1.659l-4.241,0.837c-0.049,0.01-0.097,0.014-0.145,0.014
		c-0.201,0-0.389-0.078-0.531-0.219c-0.177-0.177-0.254-0.43-0.206-0.676l0.836-4.242C-0.386,14.611-0.562,10.4,1.183,6.776
		C3.171,2.648,7.424-0.02,12.018-0.02c1.807,0,3.554,0.4,5.191,1.188c2.885,1.389,5.058,3.823,6.118,6.854s0.879,6.288-0.51,9.172
		c-0.124,0.258-0.39,0.425-0.677,0.425c-0.113,0-0.222-0.025-0.324-0.074c-0.181-0.087-0.317-0.239-0.383-0.428
		c-0.066-0.189-0.055-0.393,0.032-0.573c2.513-5.219,0.312-11.51-4.907-14.024c-1.433-0.69-2.961-1.04-4.542-1.04
		c-4.021,0-7.743,2.334-9.482,5.947c-1.569,3.258-1.365,7.036,0.544,10.106c0.1,0.161,0.136,0.354,0.099,0.541l-0.676,3.43
		l3.429-0.677c0.049-0.01,0.097-0.014,0.145-0.014c0.141,0,0.278,0.039,0.397,0.113c1.666,1.039,3.58,1.587,5.533,1.587
		c1.511,0,2.977-0.321,4.359-0.953c0.098-0.045,0.203-0.068,0.312-0.068c0.293,0,0.561,0.172,0.682,0.438
		c0.083,0.182,0.091,0.386,0.021,0.574c-0.07,0.188-0.209,0.337-0.391,0.42c-1.579,0.722-3.255,1.088-4.983,1.088H12.003z"/>
	<path d="M11.992,15.76c-2.136-0.017-4.159-0.95-5.556-2.558c-0.588-0.677-0.588-1.698,0-2.375c0.247-0.289,0.522-0.565,0.816-0.815
		c1.321-1.126,3.001-1.747,4.729-1.747c0.196,0,0.395,0.008,0.592,0.024c1.946,0.155,3.714,1.058,4.98,2.544
		c0.584,0.673,0.583,1.693-0.004,2.37c-1.397,1.608-3.42,2.54-5.55,2.558c-0.001,0-0.002,0-0.003,0H11.992z M11.982,9.765
		c-1.373,0-2.707,0.493-3.757,1.388c-0.234,0.199-0.453,0.419-0.652,0.652c-0.104,0.121-0.105,0.297-0.004,0.414
		c1.114,1.283,2.728,2.027,4.427,2.042c1.693-0.015,3.306-0.76,4.421-2.042c0.101-0.116,0.101-0.292,0-0.408
		c-1.01-1.185-2.416-1.904-3.962-2.027C12.296,9.771,12.137,9.765,11.982,9.765z"/>
	<path d="M11.992,13.135c-0.62,0-1.125-0.505-1.125-1.125c0-0.62,0.505-1.125,1.125-1.125c0.62,0,1.125,0.505,1.125,1.125
		C13.117,12.631,12.612,13.135,11.992,13.135z"/>
</g>
</svg>
